<svg width="429" height="97" viewBox="0 0 369.66666666666663 83.96946404343616"><g id="SvgjsG1023" featurekey="HdFLvg-0" transform="matrix(1.060220546451673,0,0,1.060220546451673,-11.34435964481188,-11.026293278655357)" fill="#83b271"><rect xmlns="http://www.w3.org/2000/svg" x="5" y="61.3" transform="matrix(0.7071 0.7071 -0.7071 0.7071 54.9988 -8.2329)" width="64.8" height="2"></rect><rect xmlns="http://www.w3.org/2000/svg" x="13.2" y="53.1" transform="matrix(0.7071 0.7071 -0.7071 0.7071 51.6111 -16.4154)" width="64.8" height="2"></rect><rect xmlns="http://www.w3.org/2000/svg" x="22.2" y="44.1" transform="matrix(0.7071 0.7071 -0.7071 0.7071 47.8822 -25.4167)" width="64.8" height="2"></rect><rect xmlns="http://www.w3.org/2000/svg" x="30.4" y="35.9" transform="matrix(0.7071 0.7071 -0.7071 0.7071 44.4926 -33.5993)" width="64.8" height="2"></rect><rect xmlns="http://www.w3.org/2000/svg" x="36.4" y="5.3" transform="matrix(0.7071 0.7071 -0.7071 0.7071 37.6412 -15.4227)" width="2" height="64.8"></rect><rect xmlns="http://www.w3.org/2000/svg" x="44.6" y="13.5" transform="matrix(0.7071 0.7071 -0.7071 0.7071 45.8244 -18.812)" width="2" height="64.8"></rect><rect xmlns="http://www.w3.org/2000/svg" x="53.6" y="22.5" transform="matrix(0.7071 0.7071 -0.7071 0.7071 54.8257 -22.5406)" width="2" height="64.8"></rect><rect xmlns="http://www.w3.org/2000/svg" x="61.8" y="30.7" transform="matrix(0.7071 0.7071 -0.7071 0.7071 63.0078 -25.9298)" width="2" height="64.8"></rect><circle xmlns="http://www.w3.org/2000/svg" cx="14" cy="39.6" r="3.3"></circle><circle xmlns="http://www.w3.org/2000/svg" cx="22.6" cy="31" r="3.3"></circle><circle xmlns="http://www.w3.org/2000/svg" cx="31.3" cy="22.4" r="3.3"></circle><circle xmlns="http://www.w3.org/2000/svg" cx="39.9" cy="13.7" r="3.3"></circle><circle xmlns="http://www.w3.org/2000/svg" cx="60.1" cy="14.3" r="3.3"></circle><circle xmlns="http://www.w3.org/2000/svg" cx="68.7" cy="22.9" r="3.3"></circle><circle xmlns="http://www.w3.org/2000/svg" cx="77.4" cy="31.6" r="3.3"></circle><circle xmlns="http://www.w3.org/2000/svg" cx="86" cy="40.2" r="3.3"></circle><circle xmlns="http://www.w3.org/2000/svg" cx="86" cy="59.8" r="3.3"></circle><circle xmlns="http://www.w3.org/2000/svg" cx="77.4" cy="68.4" r="3.3"></circle><circle xmlns="http://www.w3.org/2000/svg" cx="68.7" cy="77.1" r="3.3"></circle><circle xmlns="http://www.w3.org/2000/svg" cx="60.1" cy="85.7" r="3.3"></circle><circle xmlns="http://www.w3.org/2000/svg" cx="60.1" cy="85.7" r="3.3"></circle><circle xmlns="http://www.w3.org/2000/svg" cx="14" cy="60.4" r="3.3"></circle><circle xmlns="http://www.w3.org/2000/svg" cx="22.6" cy="69" r="3.3"></circle><circle xmlns="http://www.w3.org/2000/svg" cx="31.3" cy="77.6" r="3.3"></circle><circle xmlns="http://www.w3.org/2000/svg" cx="39.9" cy="86.3" r="3.3"></circle></g><g id="SvgjsG1024" featurekey="VomJeJ-0" transform="matrix(3.1225607227782763,0,0,3.1225607227782763,99.5651835027345,2.5128787285913887)" fill="#111111"><path d="M1.1 19.96 l1.06 -13.6 q0.88 -0.16 2.08 -0.16 t2.1 0.16 l1.18 4.9 q0.7 3.32 0.74 3.62 l0.14 0 q0.08 -0.5 0.74 -3.62 l1.2 -4.9 q0.88 -0.16 2.08 -0.16 t2.1 0.16 l1.06 13.6 q-0.62 0.16 -1.53 0.16 t-1.49 -0.1 l-0.32 -5.56 q-0.14 -3.32 -0.16 -4.62 l-0.12 0 l-1.98 8.14 q-0.72 0.12 -1.65 0.12 t-1.65 -0.12 l-1.96 -8.14 l-0.14 0 q0 1.78 -0.16 4.62 l-0.3 5.56 q-0.58 0.1 -1.49 0.1 t-1.53 -0.16 z M25.64 16.02 l-5.22 0 q0.04 0.9 0.46 1.4 t1.38 0.5 q0.48 0 1.11 -0.14 t1.45 -0.46 q0.66 0.68 0.82 1.84 q-1.6 1.14 -3.92 1.14 q-1.26 0 -2.11 -0.4 t-1.38 -1.12 t-0.75 -1.7 t-0.22 -2.14 q0 -1.12 0.27 -2.07 t0.82 -1.65 t1.4 -1.1 t1.99 -0.4 q0.96 0 1.73 0.32 t1.31 0.88 t0.83 1.34 t0.29 1.7 q0 1.22 -0.26 2.06 z M20.4 13.86 l2.64 0 l0 -0.22 q0 -0.74 -0.33 -1.22 t-0.99 -0.48 q-0.64 0 -0.95 0.45 t-0.37 1.47 z M36.28 18.56 q-0.1 0.42 -0.38 0.9 t-0.58 0.7 q-1.4 -0.04 -2.16 -1.06 q-1.3 1.2 -2.82 1.2 q-0.78 0 -1.36 -0.25 t-0.98 -0.67 t-0.6 -0.97 t-0.2 -1.15 q0 -0.86 0.31 -1.51 t0.85 -1.08 t1.26 -0.65 t1.54 -0.22 q0.46 0 0.81 0.01 t0.61 0.03 l0 -0.38 q0 -1.26 -1.3 -1.26 q-0.84 0 -2.94 0.64 q-0.6 -0.7 -0.76 -2.18 q0.48 -0.18 1.07 -0.34 t1.21 -0.28 t1.22 -0.19 t1.08 -0.07 q0.7 0 1.35 0.2 t1.14 0.61 t0.78 1.06 t0.29 1.55 l0 4.06 q0 0.92 0.56 1.3 z M30.240000000000002 17.06 q0 0.94 1.08 0.94 q0.56 0 1.26 -0.58 l0 -1.6 q-0.4 -0.02 -0.67 -0.03 t-0.41 -0.01 q-1.26 0 -1.26 1.28 z M41.96 17.72 l0.54 0 q0.24 0.66 0.24 1.32 t-0.06 0.86 q-1.2 0.2 -2.14 0.2 q-1.36 0 -1.93 -0.67 t-0.57 -2.11 l0 -11.9 l0.12 -0.14 l1.22 0 q0.94 0 1.32 0.42 t0.38 1.46 l0 9.62 q0 0.94 0.88 0.94 z M44.22 19.96 l1.06 -13.6 q0.88 -0.16 2.08 -0.16 t2.1 0.16 l1.18 4.9 q0.7 3.32 0.74 3.62 l0.14 0 q0.08 -0.5 0.74 -3.62 l1.2 -4.9 q0.88 -0.16 2.08 -0.16 t2.1 0.16 l1.06 13.6 q-0.62 0.16 -1.53 0.16 t-1.49 -0.1 l-0.32 -5.56 q-0.14 -3.32 -0.16 -4.62 l-0.12 0 l-1.98 8.14 q-0.72 0.12 -1.65 0.12 t-1.65 -0.12 l-1.96 -8.14 l-0.14 0 q0 1.78 -0.16 4.62 l-0.3 5.56 q-0.58 0.1 -1.49 0.1 t-1.53 -0.16 z M69.46000000000001 18.56 q-0.1 0.42 -0.38 0.9 t-0.58 0.7 q-1.4 -0.04 -2.16 -1.06 q-1.3 1.2 -2.82 1.2 q-0.78 0 -1.36 -0.25 t-0.98 -0.67 t-0.6 -0.97 t-0.2 -1.15 q0 -0.86 0.31 -1.51 t0.85 -1.08 t1.26 -0.65 t1.54 -0.22 q0.46 0 0.81 0.01 t0.61 0.03 l0 -0.38 q0 -1.26 -1.3 -1.26 q-0.84 0 -2.94 0.64 q-0.6 -0.7 -0.76 -2.18 q0.48 -0.18 1.07 -0.34 t1.21 -0.28 t1.22 -0.19 t1.08 -0.07 q0.7 0 1.35 0.2 t1.14 0.61 t0.78 1.06 t0.29 1.55 l0 4.06 q0 0.92 0.56 1.3 z M63.42 17.06 q0 0.94 1.08 0.94 q0.56 0 1.26 -0.58 l0 -1.6 q-0.4 -0.02 -0.67 -0.03 t-0.41 -0.01 q-1.26 0 -1.26 1.28 z M76.94000000000001 10 q0.12 0.56 0.12 1.12 t-0.12 1.1 l-2.38 -0.04 l0 4.6 q0 0.94 0.88 0.94 l1.12 0 q0.26 0.72 0.26 1.32 t-0.08 0.86 q-1.48 0.2 -2.72 0.2 q-2.52 0 -2.52 -2.78 l0 -5.12 l-1.56 0.02 q-0.14 -0.5 -0.14 -1.09 t0.14 -1.13 l1.56 0.04 l0 -1.16 q0 -1.02 0.39 -1.45 t1.31 -0.43 l1.22 0 l0.14 0.14 l0 2.9 z M86.24000000000001 16.02 l-5.22 0 q0.04 0.9 0.46 1.4 t1.38 0.5 q0.48 0 1.11 -0.14 t1.45 -0.46 q0.66 0.68 0.82 1.84 q-1.6 1.14 -3.92 1.14 q-1.26 0 -2.11 -0.4 t-1.38 -1.12 t-0.75 -1.7 t-0.22 -2.14 q0 -1.12 0.27 -2.07 t0.82 -1.65 t1.4 -1.1 t1.99 -0.4 q0.96 0 1.73 0.32 t1.31 0.88 t0.83 1.34 t0.29 1.7 q0 1.22 -0.26 2.06 z M81 13.86 l2.64 0 l0 -0.22 q0 -0.74 -0.33 -1.22 t-0.99 -0.48 q-0.64 0 -0.95 0.45 t-0.37 1.47 z"></path></g></svg>
